<svg xmlns="http://www.w3.org/2000/svg" fill="currentColor" viewBox="0 0 17 17">
    <path d="M16.8 7.15c0 .61-.07 1.22-.22 1.82-.15.6-.38 1.15-.68 1.65a3 3 0 01-4.04 1.26 1.93 1.93 0 01-.78-.92h-.16c-.27.34-.63.63-1.09.88-.44.26-.97.39-1.6.39-1.2 0-2.12-.36-2.77-1.07a4.1 4.1 0 01-.97-2.83c0-.9.2-1.69.59-2.37a4.1 4.1 0 011.64-1.62c.71-.4 1.55-.6 2.51-.6.63 0 1.28.05 1.95.17.68.11 1.21.23 1.58.37l-.2 4.11-.02.42v.26c0 .55.08.92.22 1.1.17.18.34.27.53.27.3 0 .56-.15.76-.44.2-.31.35-.71.44-1.2.1-.52.16-1.07.16-1.67 0-1.13-.23-2.08-.68-2.85a4.58 4.58 0 00-1.87-1.81 5.58 5.58 0 00-2.67-.62c-1.4 0-2.59.3-3.55.88A5.62 5.62 0 003.7 5.1a7.7 7.7 0 00-.74 3.45c0 1.8.48 3.2 1.44 4.16.98.96 2.38 1.44 4.2 1.44.78 0 1.59-.08 2.43-.26.84-.17 1.61-.39 2.3-.64v1.89a12.57 12.57 0 01-4.66.88c-1.65 0-3.07-.3-4.25-.88a6.28 6.28 0 01-2.7-2.53 8.12 8.12 0 01-.93-4c0-1.22.2-2.35.6-3.39A7.84 7.84 0 015.86.66 9.14 9.14 0 019.4 0c1.43 0 2.7.29 3.82.86a6.36 6.36 0 012.6 2.47c.65 1.07.97 2.34.97 3.82zM6.76 8.37c0 .74.16 1.27.46 1.59.31.32.72.48 1.23.48.67 0 1.14-.24 1.4-.72.28-.5.45-1.14.5-1.93l.13-2.17a4.7 4.7 0 00-.5-.06c-.2-.03-.4-.04-.63-.04-.63 0-1.14.14-1.52.42-.38.27-.65.62-.83 1.07-.16.42-.24.88-.24 1.36z"/>
</svg>
