<svg xmlns="http://www.w3.org/2000/svg" fill="currentColor" viewBox="0 0 16 16">
    <path d="M8 .2a8 8 0 00-2.53 15.59c.4.07.55-.17.55-.39L6 14.04c-2.23.49-2.7-1.07-2.7-1.07-.36-.92-.89-1.17-.89-1.17-.72-.5.06-.49.06-.49.8.06 1.22.83 1.22.83.72 1.22 1.88.87 2.33.66.08-.51.28-.87.51-1.07-1.78-.2-3.64-.88-3.64-3.95 0-.87.3-1.59.82-2.15-.1-.2-.36-1.01.07-2.11 0 0 .67-.22 2.2.82a7.67 7.67 0 014 0c1.52-1.04 2.19-.82 2.19-.82.43 1.1.16 1.91.08 2.11.5.56.82 1.28.82 2.15 0 3.07-1.87 3.75-3.65 3.95.28.24.54.73.54 1.48l-.01 2.19c0 .2.14.46.55.38A8 8 0 008 .2z"/>
</svg>
